<mxfile host="app.diagrams.net" agent="Mozilla/5.0 (Macintosh; Intel Mac OS X 10.15; rv:142.0) Gecko/20100101 Firefox/142.0" version="28.2.3">
  <diagram name="Side-1" id="4aOrvDR574CowG43dqmp">
    <mxGraphModel dx="2053" dy="1162" grid="1" gridSize="10" guides="1" tooltips="1" connect="1" arrows="1" fold="1" page="1" pageScale="1" pageWidth="827" pageHeight="1169" math="0" shadow="0">
      <root>
        <mxCell id="0" />
        <mxCell id="1" parent="0" />
        <mxCell id="MZCAMiVsQpiAYw7-ONOL-2" value="&lt;div&gt;AWS&lt;/div&gt;" style="swimlane;whiteSpace=wrap;html=1;" parent="1" vertex="1">
          <mxGeometry x="-580" y="40" width="800" height="780" as="geometry" />
        </mxCell>
        <mxCell id="plPRpTzKilKp2DHKRotJ-16" style="edgeStyle=none;rounded=0;orthogonalLoop=1;jettySize=auto;html=1;" parent="MZCAMiVsQpiAYw7-ONOL-2" source="MZCAMiVsQpiAYw7-ONOL-10" target="MZCAMiVsQpiAYw7-ONOL-21" edge="1">
          <mxGeometry relative="1" as="geometry" />
        </mxCell>
        <mxCell id="izkwSGDW6eaIyonWrSST-2" value="" style="edgeStyle=orthogonalEdgeStyle;rounded=0;orthogonalLoop=1;jettySize=auto;html=1;" edge="1" parent="MZCAMiVsQpiAYw7-ONOL-2" source="MZCAMiVsQpiAYw7-ONOL-10" target="izkwSGDW6eaIyonWrSST-1">
          <mxGeometry relative="1" as="geometry" />
        </mxCell>
        <mxCell id="MZCAMiVsQpiAYw7-ONOL-10" value="Amazon API Gateway" style="sketch=0;outlineConnect=0;fontColor=#232F3E;gradientColor=none;strokeColor=#ffffff;fillColor=#232F3E;dashed=0;verticalLabelPosition=middle;verticalAlign=bottom;align=center;html=1;whiteSpace=wrap;fontSize=10;fontStyle=1;spacing=3;shape=mxgraph.aws4.productIcon;prIcon=mxgraph.aws4.api_gateway;" parent="MZCAMiVsQpiAYw7-ONOL-2" vertex="1">
          <mxGeometry x="50" y="305" width="100" height="130" as="geometry" />
        </mxCell>
        <mxCell id="MZCAMiVsQpiAYw7-ONOL-14" value="AWS Greengrass" style="sketch=0;outlineConnect=0;fontColor=#232F3E;gradientColor=none;strokeColor=#ffffff;fillColor=#232F3E;dashed=0;verticalLabelPosition=middle;verticalAlign=bottom;align=center;html=1;whiteSpace=wrap;fontSize=10;fontStyle=1;spacing=3;shape=mxgraph.aws4.productIcon;prIcon=mxgraph.aws4.greengrass;" parent="MZCAMiVsQpiAYw7-ONOL-2" vertex="1">
          <mxGeometry x="660" y="530" width="100" height="120" as="geometry" />
        </mxCell>
        <mxCell id="plPRpTzKilKp2DHKRotJ-4" value="" style="edgeStyle=orthogonalEdgeStyle;rounded=0;orthogonalLoop=1;jettySize=auto;html=1;" parent="MZCAMiVsQpiAYw7-ONOL-2" edge="1">
          <mxGeometry relative="1" as="geometry">
            <mxPoint x="420" y="580" as="sourcePoint" />
            <mxPoint x="659.9999999999995" y="580" as="targetPoint" />
          </mxGeometry>
        </mxCell>
        <mxCell id="MZCAMiVsQpiAYw7-ONOL-15" value="&lt;div&gt;create-deployment&lt;/div&gt;" style="sketch=0;outlineConnect=0;fontColor=#232F3E;gradientColor=none;strokeColor=#ffffff;fillColor=#232F3E;dashed=0;verticalLabelPosition=middle;verticalAlign=bottom;align=center;html=1;whiteSpace=wrap;fontSize=10;fontStyle=1;spacing=3;shape=mxgraph.aws4.productIcon;prIcon=mxgraph.aws4.lambda;" parent="MZCAMiVsQpiAYw7-ONOL-2" vertex="1">
          <mxGeometry x="317" y="530" width="100" height="120" as="geometry" />
        </mxCell>
        <mxCell id="plPRpTzKilKp2DHKRotJ-17" style="edgeStyle=none;rounded=0;orthogonalLoop=1;jettySize=auto;html=1;" parent="MZCAMiVsQpiAYw7-ONOL-2" source="MZCAMiVsQpiAYw7-ONOL-21" target="MZCAMiVsQpiAYw7-ONOL-13" edge="1">
          <mxGeometry relative="1" as="geometry" />
        </mxCell>
        <mxCell id="plPRpTzKilKp2DHKRotJ-18" value="MQTT" style="edgeLabel;html=1;align=center;verticalAlign=middle;resizable=0;points=[];" parent="plPRpTzKilKp2DHKRotJ-17" vertex="1" connectable="0">
          <mxGeometry x="-0.039" y="-2" relative="1" as="geometry">
            <mxPoint as="offset" />
          </mxGeometry>
        </mxCell>
        <mxCell id="MZCAMiVsQpiAYw7-ONOL-21" value="reboot-device" style="sketch=0;outlineConnect=0;fontColor=#232F3E;gradientColor=none;strokeColor=#ffffff;fillColor=#232F3E;dashed=0;verticalLabelPosition=middle;verticalAlign=bottom;align=center;html=1;whiteSpace=wrap;fontSize=10;fontStyle=1;spacing=3;shape=mxgraph.aws4.productIcon;prIcon=mxgraph.aws4.lambda;" parent="MZCAMiVsQpiAYw7-ONOL-2" vertex="1">
          <mxGeometry x="317" y="120" width="100" height="120" as="geometry" />
        </mxCell>
        <mxCell id="MZCAMiVsQpiAYw7-ONOL-16" value="connection-status" style="sketch=0;outlineConnect=0;fontColor=#232F3E;gradientColor=none;strokeColor=#ffffff;fillColor=#232F3E;dashed=0;verticalLabelPosition=middle;verticalAlign=bottom;align=center;html=1;whiteSpace=wrap;fontSize=10;fontStyle=1;spacing=3;shape=mxgraph.aws4.productIcon;prIcon=mxgraph.aws4.dynamodb;" parent="MZCAMiVsQpiAYw7-ONOL-2" vertex="1">
          <mxGeometry x="320" y="345" width="97" height="120" as="geometry" />
        </mxCell>
        <mxCell id="MZCAMiVsQpiAYw7-ONOL-46" value="Amazon ECR" style="sketch=0;outlineConnect=0;fontColor=#232F3E;gradientColor=none;strokeColor=#ffffff;fillColor=#232F3E;dashed=0;verticalLabelPosition=middle;verticalAlign=bottom;align=center;html=1;whiteSpace=wrap;fontSize=10;fontStyle=1;spacing=3;shape=mxgraph.aws4.productIcon;prIcon=mxgraph.aws4.ecr;" parent="MZCAMiVsQpiAYw7-ONOL-2" vertex="1">
          <mxGeometry x="660" y="60" width="100" height="120" as="geometry" />
        </mxCell>
        <mxCell id="plPRpTzKilKp2DHKRotJ-9" value="" style="edgeStyle=none;rounded=0;orthogonalLoop=1;jettySize=auto;html=1;" parent="MZCAMiVsQpiAYw7-ONOL-2" source="MZCAMiVsQpiAYw7-ONOL-13" target="plPRpTzKilKp2DHKRotJ-8" edge="1">
          <mxGeometry relative="1" as="geometry" />
        </mxCell>
        <mxCell id="plPRpTzKilKp2DHKRotJ-10" value="Text" style="edgeLabel;html=1;align=center;verticalAlign=middle;resizable=0;points=[];" parent="plPRpTzKilKp2DHKRotJ-9" vertex="1" connectable="0">
          <mxGeometry x="-0.0073" y="-1" relative="1" as="geometry">
            <mxPoint as="offset" />
          </mxGeometry>
        </mxCell>
        <mxCell id="plPRpTzKilKp2DHKRotJ-11" value="IOT Rule" style="edgeLabel;html=1;align=center;verticalAlign=middle;resizable=0;points=[];" parent="plPRpTzKilKp2DHKRotJ-9" vertex="1" connectable="0">
          <mxGeometry x="0.0088" relative="1" as="geometry">
            <mxPoint as="offset" />
          </mxGeometry>
        </mxCell>
        <mxCell id="MZCAMiVsQpiAYw7-ONOL-13" value="Amazon IoT Core" style="sketch=0;outlineConnect=0;fontColor=#232F3E;gradientColor=none;strokeColor=#ffffff;fillColor=#232F3E;dashed=0;verticalLabelPosition=middle;verticalAlign=bottom;align=center;html=1;whiteSpace=wrap;fontSize=10;fontStyle=1;spacing=3;shape=mxgraph.aws4.productIcon;prIcon=mxgraph.aws4.iot_core;" parent="MZCAMiVsQpiAYw7-ONOL-2" vertex="1">
          <mxGeometry x="660" y="260" width="100" height="140" as="geometry" />
        </mxCell>
        <mxCell id="plPRpTzKilKp2DHKRotJ-12" value="" style="edgeStyle=none;rounded=0;orthogonalLoop=1;jettySize=auto;html=1;" parent="MZCAMiVsQpiAYw7-ONOL-2" source="plPRpTzKilKp2DHKRotJ-8" target="MZCAMiVsQpiAYw7-ONOL-16" edge="1">
          <mxGeometry relative="1" as="geometry" />
        </mxCell>
        <mxCell id="plPRpTzKilKp2DHKRotJ-8" value="update-connection-status" style="sketch=0;outlineConnect=0;fontColor=#232F3E;gradientColor=none;strokeColor=#ffffff;fillColor=#232F3E;dashed=0;verticalLabelPosition=middle;verticalAlign=bottom;align=center;html=1;whiteSpace=wrap;fontSize=10;fontStyle=1;spacing=3;shape=mxgraph.aws4.productIcon;prIcon=mxgraph.aws4.lambda;" parent="MZCAMiVsQpiAYw7-ONOL-2" vertex="1">
          <mxGeometry x="470" y="340" width="100" height="130" as="geometry" />
        </mxCell>
        <mxCell id="plPRpTzKilKp2DHKRotJ-14" value="" style="endArrow=classic;html=1;rounded=0;" parent="MZCAMiVsQpiAYw7-ONOL-2" source="MZCAMiVsQpiAYw7-ONOL-10" target="MZCAMiVsQpiAYw7-ONOL-15" edge="1">
          <mxGeometry width="50" height="50" relative="1" as="geometry">
            <mxPoint x="82" y="370" as="sourcePoint" />
            <mxPoint x="252" y="555" as="targetPoint" />
          </mxGeometry>
        </mxCell>
        <mxCell id="plPRpTzKilKp2DHKRotJ-27" value="" style="endArrow=none;html=1;rounded=0;" parent="MZCAMiVsQpiAYw7-ONOL-2" source="MZCAMiVsQpiAYw7-ONOL-16" target="MZCAMiVsQpiAYw7-ONOL-21" edge="1">
          <mxGeometry width="50" height="50" relative="1" as="geometry">
            <mxPoint x="367" y="340" as="sourcePoint" />
            <mxPoint x="367" y="250" as="targetPoint" />
          </mxGeometry>
        </mxCell>
        <mxCell id="izkwSGDW6eaIyonWrSST-1" value="Auth" style="sketch=0;outlineConnect=0;fontColor=#232F3E;gradientColor=none;strokeColor=#ffffff;fillColor=#232F3E;dashed=0;verticalLabelPosition=middle;verticalAlign=bottom;align=center;html=1;whiteSpace=wrap;fontSize=10;fontStyle=1;spacing=3;shape=mxgraph.aws4.productIcon;prIcon=mxgraph.aws4.lambda;" vertex="1" parent="MZCAMiVsQpiAYw7-ONOL-2">
          <mxGeometry x="50" y="120" width="100" height="120" as="geometry" />
        </mxCell>
        <mxCell id="MZCAMiVsQpiAYw7-ONOL-3" value="&lt;div&gt;Edge Location&lt;/div&gt;" style="swimlane;whiteSpace=wrap;html=1;" parent="1" vertex="1">
          <mxGeometry x="390" y="150" width="680" height="540" as="geometry" />
        </mxCell>
        <mxCell id="MZCAMiVsQpiAYw7-ONOL-27" value="Group A" style="swimlane;whiteSpace=wrap;html=1;" parent="MZCAMiVsQpiAYw7-ONOL-3" vertex="1">
          <mxGeometry x="20" y="50" width="220" height="470" as="geometry" />
        </mxCell>
        <mxCell id="MZCAMiVsQpiAYw7-ONOL-30" value="Device" style="swimlane;whiteSpace=wrap;html=1;" parent="MZCAMiVsQpiAYw7-ONOL-27" vertex="1">
          <mxGeometry x="20" y="40" width="180" height="180" as="geometry" />
        </mxCell>
        <mxCell id="MZCAMiVsQpiAYw7-ONOL-11" value="Greengrass Core" style="sketch=0;outlineConnect=0;fontColor=#232F3E;gradientColor=none;strokeColor=#ffffff;fillColor=#232F3E;dashed=0;verticalLabelPosition=middle;verticalAlign=bottom;align=center;html=1;whiteSpace=wrap;fontSize=10;fontStyle=1;spacing=3;shape=mxgraph.aws4.productIcon;prIcon=mxgraph.aws4.greengrass;" parent="MZCAMiVsQpiAYw7-ONOL-30" vertex="1">
          <mxGeometry x="13" y="50" width="80" height="110" as="geometry" />
        </mxCell>
        <mxCell id="MZCAMiVsQpiAYw7-ONOL-47" value="Application" style="sketch=0;outlineConnect=0;fontColor=#232F3E;gradientColor=none;fillColor=#7AA116;strokeColor=none;dashed=0;verticalLabelPosition=bottom;verticalAlign=top;align=center;html=1;fontSize=12;fontStyle=0;aspect=fixed;pointerEvents=1;shape=mxgraph.aws4.iot_greengrass_component;" parent="MZCAMiVsQpiAYw7-ONOL-30" vertex="1">
          <mxGeometry x="120" y="40" width="40" height="40" as="geometry" />
        </mxCell>
        <mxCell id="MZCAMiVsQpiAYw7-ONOL-63" value="Core (status)" style="sketch=0;outlineConnect=0;fontColor=#232F3E;gradientColor=none;fillColor=#7AA116;strokeColor=none;dashed=0;verticalLabelPosition=bottom;verticalAlign=top;align=center;html=1;fontSize=12;fontStyle=0;aspect=fixed;pointerEvents=1;shape=mxgraph.aws4.iot_greengrass_component;" parent="MZCAMiVsQpiAYw7-ONOL-30" vertex="1">
          <mxGeometry x="120" y="110" width="40" height="40" as="geometry" />
        </mxCell>
        <mxCell id="MZCAMiVsQpiAYw7-ONOL-31" value="Device" style="swimlane;whiteSpace=wrap;html=1;" parent="MZCAMiVsQpiAYw7-ONOL-27" vertex="1">
          <mxGeometry x="20" y="230" width="180" height="40" as="geometry" />
        </mxCell>
        <mxCell id="MZCAMiVsQpiAYw7-ONOL-38" value="Device" style="swimlane;whiteSpace=wrap;html=1;" parent="MZCAMiVsQpiAYw7-ONOL-27" vertex="1">
          <mxGeometry x="20" y="280" width="180" height="40" as="geometry" />
        </mxCell>
        <mxCell id="MZCAMiVsQpiAYw7-ONOL-39" value="Device" style="swimlane;whiteSpace=wrap;html=1;" parent="MZCAMiVsQpiAYw7-ONOL-27" vertex="1">
          <mxGeometry x="20" y="330" width="180" height="40" as="geometry" />
        </mxCell>
        <mxCell id="MZCAMiVsQpiAYw7-ONOL-28" value="Group B" style="swimlane;whiteSpace=wrap;html=1;" parent="MZCAMiVsQpiAYw7-ONOL-3" vertex="1">
          <mxGeometry x="250" y="50" width="200" height="470" as="geometry" />
        </mxCell>
        <mxCell id="MZCAMiVsQpiAYw7-ONOL-40" value="Device" style="swimlane;whiteSpace=wrap;html=1;" parent="MZCAMiVsQpiAYw7-ONOL-28" vertex="1">
          <mxGeometry x="10" y="40" width="180" height="40" as="geometry" />
        </mxCell>
        <mxCell id="MZCAMiVsQpiAYw7-ONOL-41" value="Device" style="swimlane;whiteSpace=wrap;html=1;" parent="MZCAMiVsQpiAYw7-ONOL-28" vertex="1">
          <mxGeometry x="10" y="90" width="180" height="40" as="geometry" />
        </mxCell>
        <mxCell id="MZCAMiVsQpiAYw7-ONOL-42" value="Device" style="swimlane;whiteSpace=wrap;html=1;" parent="MZCAMiVsQpiAYw7-ONOL-28" vertex="1">
          <mxGeometry x="10" y="140" width="180" height="40" as="geometry" />
        </mxCell>
        <mxCell id="MZCAMiVsQpiAYw7-ONOL-29" value="Group C" style="swimlane;whiteSpace=wrap;html=1;" parent="MZCAMiVsQpiAYw7-ONOL-3" vertex="1">
          <mxGeometry x="460" y="50" width="200" height="470" as="geometry" />
        </mxCell>
        <mxCell id="MZCAMiVsQpiAYw7-ONOL-43" value="Device" style="swimlane;whiteSpace=wrap;html=1;" parent="MZCAMiVsQpiAYw7-ONOL-29" vertex="1">
          <mxGeometry x="10" y="40" width="180" height="40" as="geometry" />
        </mxCell>
        <mxCell id="MZCAMiVsQpiAYw7-ONOL-44" value="Device" style="swimlane;whiteSpace=wrap;html=1;" parent="MZCAMiVsQpiAYw7-ONOL-29" vertex="1">
          <mxGeometry x="10" y="90" width="180" height="40" as="geometry" />
        </mxCell>
        <mxCell id="MZCAMiVsQpiAYw7-ONOL-17" value="" style="sketch=0;outlineConnect=0;fontColor=#232F3E;gradientColor=none;fillColor=#232F3D;strokeColor=none;dashed=0;verticalLabelPosition=bottom;verticalAlign=top;align=center;html=1;fontSize=12;fontStyle=0;aspect=fixed;pointerEvents=1;shape=mxgraph.aws4.user;" parent="1" vertex="1">
          <mxGeometry x="-750" y="371" width="78" height="78" as="geometry" />
        </mxCell>
        <mxCell id="MZCAMiVsQpiAYw7-ONOL-69" value="Icons Description" style="swimlane;horizontal=0;whiteSpace=wrap;html=1;" parent="1" vertex="1">
          <mxGeometry x="780" y="860" width="200" height="160" as="geometry" />
        </mxCell>
        <mxCell id="MZCAMiVsQpiAYw7-ONOL-64" value="Greengrass Component" style="sketch=0;outlineConnect=0;fontColor=#232F3E;gradientColor=none;fillColor=#7AA116;strokeColor=none;dashed=0;verticalLabelPosition=bottom;verticalAlign=top;align=center;html=1;fontSize=12;fontStyle=0;aspect=fixed;pointerEvents=1;shape=mxgraph.aws4.iot_greengrass_component;" parent="MZCAMiVsQpiAYw7-ONOL-69" vertex="1">
          <mxGeometry x="90" y="50" width="40" height="40" as="geometry" />
        </mxCell>
        <mxCell id="MZCAMiVsQpiAYw7-ONOL-70" value="" style="endArrow=classic;html=1;rounded=0;exitX=1;exitY=0.5;exitDx=0;exitDy=0;exitPerimeter=0;" parent="1" source="MZCAMiVsQpiAYw7-ONOL-14" edge="1">
          <mxGeometry width="50" height="50" relative="1" as="geometry">
            <mxPoint x="230" y="440" as="sourcePoint" />
            <mxPoint x="410" y="580" as="targetPoint" />
          </mxGeometry>
        </mxCell>
        <mxCell id="MZCAMiVsQpiAYw7-ONOL-71" value="Deploy&lt;br&gt;to group" style="edgeLabel;html=1;align=center;verticalAlign=middle;resizable=0;points=[];" parent="MZCAMiVsQpiAYw7-ONOL-70" vertex="1" connectable="0">
          <mxGeometry x="-0.1022" y="-2" relative="1" as="geometry">
            <mxPoint as="offset" />
          </mxGeometry>
        </mxCell>
        <mxCell id="MZCAMiVsQpiAYw7-ONOL-72" value="" style="endArrow=classic;html=1;rounded=0;entryX=1;entryY=0.417;entryDx=0;entryDy=0;entryPerimeter=0;exitX=-0.038;exitY=0.364;exitDx=0;exitDy=0;exitPerimeter=0;" parent="1" source="MZCAMiVsQpiAYw7-ONOL-11" target="MZCAMiVsQpiAYw7-ONOL-46" edge="1">
          <mxGeometry width="50" height="50" relative="1" as="geometry">
            <mxPoint x="280" y="300" as="sourcePoint" />
            <mxPoint x="330" y="250" as="targetPoint" />
          </mxGeometry>
        </mxCell>
        <mxCell id="MZCAMiVsQpiAYw7-ONOL-73" value="Pull image" style="edgeLabel;html=1;align=center;verticalAlign=middle;resizable=0;points=[];" parent="MZCAMiVsQpiAYw7-ONOL-72" vertex="1" connectable="0">
          <mxGeometry x="0.0801" relative="1" as="geometry">
            <mxPoint x="-1" as="offset" />
          </mxGeometry>
        </mxCell>
        <mxCell id="plPRpTzKilKp2DHKRotJ-1" value="" style="endArrow=classic;startArrow=classic;html=1;rounded=0;exitX=1;exitY=0.429;exitDx=0;exitDy=0;exitPerimeter=0;entryX=-0.038;entryY=0.636;entryDx=0;entryDy=0;entryPerimeter=0;" parent="1" source="MZCAMiVsQpiAYw7-ONOL-13" target="MZCAMiVsQpiAYw7-ONOL-11" edge="1">
          <mxGeometry width="50" height="50" relative="1" as="geometry">
            <mxPoint x="280" y="620" as="sourcePoint" />
            <mxPoint x="360" y="380" as="targetPoint" />
          </mxGeometry>
        </mxCell>
        <mxCell id="plPRpTzKilKp2DHKRotJ-2" value="Text" style="edgeLabel;html=1;align=center;verticalAlign=middle;resizable=0;points=[];" parent="plPRpTzKilKp2DHKRotJ-1" vertex="1" connectable="0">
          <mxGeometry x="-0.0255" y="-1" relative="1" as="geometry">
            <mxPoint x="1" as="offset" />
          </mxGeometry>
        </mxCell>
        <mxCell id="plPRpTzKilKp2DHKRotJ-3" value="MQTT" style="edgeLabel;html=1;align=center;verticalAlign=middle;resizable=0;points=[];" parent="plPRpTzKilKp2DHKRotJ-1" vertex="1" connectable="0">
          <mxGeometry x="-0.023" y="-5" relative="1" as="geometry">
            <mxPoint as="offset" />
          </mxGeometry>
        </mxCell>
        <mxCell id="plPRpTzKilKp2DHKRotJ-24" value="" style="endArrow=classic;startArrow=classic;html=1;rounded=0;" parent="1" source="MZCAMiVsQpiAYw7-ONOL-17" target="MZCAMiVsQpiAYw7-ONOL-10" edge="1">
          <mxGeometry width="50" height="50" relative="1" as="geometry">
            <mxPoint x="-660" y="450" as="sourcePoint" />
            <mxPoint x="-610" y="400" as="targetPoint" />
          </mxGeometry>
        </mxCell>
        <mxCell id="plPRpTzKilKp2DHKRotJ-25" value="HTTPS" style="edgeLabel;html=1;align=center;verticalAlign=middle;resizable=0;points=[];" parent="plPRpTzKilKp2DHKRotJ-24" vertex="1" connectable="0">
          <mxGeometry x="-0.1596" y="-2" relative="1" as="geometry">
            <mxPoint as="offset" />
          </mxGeometry>
        </mxCell>
      </root>
    </mxGraphModel>
  </diagram>
</mxfile>
